<?xml version="1.0" standalone="no"?>
<!DOCTYPE svg PUBLIC "-//W3C//DTD SVG 20010904//EN"
 "http://www.w3.org/TR/2001/REC-SVG-20010904/DTD/svg10.dtd">
<svg version="1.0" xmlns="http://www.w3.org/2000/svg"
 width="400.000000pt" height="400.000000pt" viewBox="0 0 400.000000 400.000000"
 preserveAspectRatio="xMidYMid meet">
<metadata>
Created by potrace 1.11, written by Peter Selinger 2001-2013
</metadata>
<g transform="translate(0.000000,400.000000) scale(0.100000,-0.100000)"
fill="#000000" stroke="none">
<path d="M1785 3868 c-343 -38 -704 -191 -972 -410 -798 -651 -930 -1815 -299
-2623 493 -630 1342 -883 2095 -624 129 45 374 170 480 246 109 79 288 246
370 348 217 267 358 587 406 926 19 133 19 395 0 528 -48 339 -189 659 -406
926 -82 102 -261 269 -370 348 -106 76 -351 201 -480 246 -250 86 -559 119
-824 89z m355 -128 c406 -36 772 -201 1060 -477 293 -280 461 -598 532 -1003
17 -99 17 -431 0 -530 -71 -405 -239 -723 -532 -1003 -411 -394 -991 -561
-1552 -447 -685 140 -1217 674 -1365 1369 -25 115 -27 145 -27 346 0 201 2
231 27 346 163 766 792 1329 1561 1398 132 12 168 12 296 1z"/>
<path d="M1775 3556 c-185 -30 -317 -75 -494 -166 -408 -211 -712 -608 -811
-1059 -61 -275 -44 -587 46 -847 183 -534 626 -924 1188 -1046 86 -19 132 -22
311 -22 179 0 225 3 311 22 422 92 772 327 1006 676 269 402 339 914 187 1371
-178 535 -622 932 -1181 1056 -120 27 -441 35 -563 15z m471 -321 c81 -62 132
-175 141 -315 9 -142 -23 -222 -151 -373 -31 -37 -66 -87 -77 -112 -31 -71
-42 -198 -36 -450 5 -241 25 -392 91 -682 50 -223 60 -281 60 -383 1 -167 -38
-219 -168 -223 -76 -2 -107 15 -144 81 -47 84 -41 198 28 512 87 396 117 698
94 948 -16 174 -29 208 -120 317 -101 122 -136 193 -142 294 -9 152 66 315
176 383 83 51 183 52 248 3z m484 -242 c10 -147 24 -474 31 -725 12 -444 12
-459 -7 -479 -18 -20 -18 -22 -1 -51 17 -29 17 -31 0 -43 -15 -11 -15 -17 -5
-40 11 -23 10 -30 -4 -46 -19 -21 -20 -6 19 -284 45 -315 62 -526 48 -591 -13
-68 -34 -94 -73 -94 -65 0 -88 33 -112 160 -26 137 -31 325 -11 480 27 215 30
296 12 324 -12 17 -13 26 -4 35 8 8 8 19 -1 43 -8 22 -8 35 -1 44 6 7 9 23 7
36 -2 18 -11 24 -38 28 -45 7 -77 53 -84 123 -13 124 -16 402 -6 512 10 113
24 192 84 465 40 180 48 211 68 275 21 63 46 110 55 101 3 -3 13 -126 23 -273z
m-1531 -440 c7 -29 20 -63 30 -74 26 -32 65 -19 91 30 19 39 26 86 50 346 6
66 17 149 24 185 13 62 14 54 15 -162 1 -227 12 -361 34 -408 16 -33 61 -37
104 -11 59 37 61 49 65 364 3 314 8 330 48 167 20 -80 21 -108 18 -282 -6
-242 -15 -277 -96 -357 -32 -31 -85 -71 -119 -89 -43 -23 -65 -41 -69 -57 -3
-13 0 -66 6 -117 9 -63 10 -155 6 -288 -7 -212 0 -309 40 -560 35 -212 43
-414 20 -475 -21 -54 -48 -75 -97 -75 -50 0 -83 40 -100 117 -16 80 -6 319 20
463 66 364 68 642 5 880 -31 118 -58 165 -128 221 -75 60 -86 86 -86 201 0 73
10 145 45 314 25 120 46 223 47 229 1 5 5 -107 8 -250 4 -147 12 -283 19 -312z"/>
</g>
</svg>
